<svg xmlns="http://www.w3.org/2000/svg"
     viewBox="0 0 24 24"
     class="icon icon-brand-zhihu">
  <path fill="currentColor" d="
    M7.685 4.078
    c-.271.73-.5 1.434-.68 2.11
    h4.587
    c.545-.006.445 1.168.445 1.171
    H9.384
    a58.104 58.104 0 0 1 -.112 3.797
    h2.712
    c.388.023.393 1.251.393 1.266
    H9.183
    a9.223 9.223 0 0 1 -.408 2.102
    l.757-.604
    c.452.456 1.512 1.712 1.906 2.177
    c.473.681.063 2.081.063 2.081
    l-2.794-3.382
    c-.653 2.518-1.845 3.607-1.845 3.607
    c-.523.468-1.58.82-2.64.516
    c2.218-1.73 3.44-3.917 3.667-6.497
    H4.491
    c0-.015.197-1.243.806-1.266
    h2.71
    c.024-.32.086-3.254.086-3.797
    H6.598
    c-.136.406-.158.447-.268.753
    c-.594 1.095-1.603 1.122-1.907 1.155
    c.906-1.821 1.416-3.6 1.591-4.064
    c.425-1.124 1.671-1.125 1.671-1.125
    z

    M13.078 6
    h6.377
    v11.33
    h-2.573
    l-2.184 1.373
    -.401-1.373
    h-1.219
    z

    M14.391 7.219
    v8.86
    h.623
    l.263.937
    1.455-.938
    h1.456
    v-8.86
    z
  "/>
</svg>
